<svg id="edd5e22e-a7a5-4a3f-8920-54b65b42808d" data-name="Layer 1" xmlns="http://www.w3.org/2000/svg" viewBox="0 0 2064.79 1062.11">
  <path id="ee591fe9-28a4-4358-b1c2-b514c58506e4" data-name="Path 284" d="M1102.2,174.81c31.78,0,60.33,11,87.73,26.08,10.25,5.64,22.21,7.36,32.29,13.44a32.81,32.81,0,0,0,6.86,3.55c8.14,2.52,9.68,8.56,9.52,16.06a61.9,61.9,0,0,1-5.43,25.42,23.82,23.82,0,0,0-2.44,7.89c-.74,8.83,2.1,13.68,10.7,14.84a16.94,16.94,0,0,1,15.3,14.2,83.37,83.37,0,0,1,7.92,38.26c.17,13.47,5.78,26.53,8.39,39.91a134.78,134.78,0,0,0,12.07,32.12,18.4,18.4,0,0,1-.67,16.54,71.13,71.13,0,0,0-8.35,27.64,23.84,23.84,0,0,0,11.2,19.65c.91.73,2.35,1.12,2.86,2,7,12.8,19.66,21.91,23.65,36.8a33.85,33.85,0,0,0,9.08,12.39,32,32,0,0,1,9,17.79,21.68,21.68,0,0,1-18.82,24c-3.5.74-7,1.23-10.51,1.93-7,1.31-8.25,3.2-6.52,10.24a64,64,0,0,0,2.84,9.07,27.22,27.22,0,0,1-2,25.08,25,25,0,0,0-3.75,18.73,11.79,11.79,0,0,1-4.68,11.08,35.8,35.8,0,0,0-10.17,24,113,113,0,0,1-4.2,31.13,23.49,23.49,0,0,1-6.38,9.86,57.22,57.22,0,0,1-26.23,15.52,25.61,25.61,0,0,1-4.71.41,78.57,78.57,0,0,1-16.4-2.71,35.66,35.66,0,0,0-7.5-.74,48.61,48.61,0,0,0-5.4.33,332.37,332.37,0,0,0-61.92,13.85,38.44,38.44,0,0,0-18,14.17c-6.12,7.76-11.27,16.24-17.32,24.06-2.87,3.68-7.07,6.34-10.26,9.78a33.82,33.82,0,0,0,9,53.12,25.72,25.72,0,0,1,8,7,45.38,45.38,0,0,0,8.45,9.78,14.93,14.93,0,0,1,6.11,11.23,50.81,50.81,0,0,0,7.69,22c5.29,10.18,11.83,19.66,16.58,30.16,3.68,7.93,8.78,15.07,12.13,23.16,2.54,6.12,1.34,7.64-5.47,7.67a20.47,20.47,0,0,1-16.34-6.51,406,406,0,0,0-159.95-102,494.1,494.1,0,0,0-61.12-18,509.46,509.46,0,0,0-63-10c-7.9-.73-15.79-1.7-23.73-2.07-8-.61-16-.78-24-.78-5.88,0-11.77.09-17.71.16-2.85.07-3.8-.11-4.41-1-1.09-1.61.34-3,1.14-4.29A24.41,24.41,0,0,1,807,786.4c10.25-3.2,11.1-13.19,14-21.3a36.85,36.85,0,0,1,6.38-12.5,53.26,53.26,0,0,0,13.56-33.48A18.18,18.18,0,0,1,851.18,703,72.06,72.06,0,0,1,857.8,699a14.63,14.63,0,0,0,9.61-16.48c-1.65-20.92-2.75-41.88-4.83-62.66a72,72,0,0,0-13.09-32.79,8.31,8.31,0,0,0-6.69-3.21,29,29,0,0,0-4.06-.28,46.12,46.12,0,0,0-27.27,11.83,89.05,89.05,0,0,1-29,14.79,24.68,24.68,0,0,1-6.87,1.22,10.19,10.19,0,0,1-7.15-2.63,21.15,21.15,0,0,1-1.7-18.63A460.58,460.58,0,0,1,804,537.51a40.35,40.35,0,0,0,5.33-9.91c4.95-10.38,14.17-17.8,19.26-27.83,6.38-12.62,13.07-25.25,9.4-40.7a46.37,46.37,0,0,1,.78-20.13,83.6,83.6,0,0,0-.58-31.76,67.62,67.62,0,0,1,4-30.41c6.56-21.29,11.48-43.12,20.13-63.76a41.15,41.15,0,0,1,9.37-13.38c7.77-7.84,14-17.12,21.33-25.47a42.88,42.88,0,0,1,28.38-17.83,16.7,16.7,0,0,0,9.09-4.18,235.36,235.36,0,0,1,37.36-25.34c7-3.82,11.24-10.59,17.86-14.67a15.49,15.49,0,0,1,5.79-2.83c19.91-2.84,36.47-13.88,54.07-22.3a53.41,53.41,0,0,1,14.43-5.27,119.11,119.11,0,0,0,23.67-5.41,30,30,0,0,1,10.72-1.47Z" fill="#002431"/>
  <ellipse cx="1060.73" cy="559.13" rx="423.1" ry="448.85" fill="none" stroke="#002431" stroke-width="22"/>
</svg>
