<svg id="ab9cd56b-08dd-4356-9fab-4f55b683db88" data-name="Layer 1" xmlns="http://www.w3.org/2000/svg" xmlns:xlink="http://www.w3.org/1999/xlink" viewBox="0 0 1920 177">
  <defs>
    <clipPath id="b39ec4bb-014d-465f-8dc9-616cc03ac681">
      <rect width="1920" height="177" fill="none"/>
    </clipPath>
  </defs>
  <g clip-path="url(#b39ec4bb-014d-465f-8dc9-616cc03ac681)">
    <g id="f4e7521c-f202-489a-9d2c-41199e58a765" data-name="nav">
      <g id="b11d6528-eb97-4b7d-9b32-a527554abdfa" data-name="nav-2">
        <path id="f35ab96e-9ff8-470a-bba7-bf226e7a38e9" data-name="nav boks" d="M0,0H1920V147.63L0,164.76Z" fill="#002431"/>
      </g>
      <g id="b4a91d92-5220-46be-80ae-20e76cf3a4a1" data-name="internship-link" style="isolation: isolate">
        <text transform="translate(856.04 86)" font-size="40" fill="#fff" font-family="Poppins-Bold, Poppins" font-weight="700" style="isolation: isolate">INTERNSHIP</text>
      </g>
      <g id="badbb209-a27b-40a8-8e89-62df2a18cb89" data-name="about-link" style="isolation: isolate">
        <text transform="translate(1163.44 86)" font-size="40" fill="#fff" font-family="Poppins-Bold, Poppins" font-weight="700" style="isolation: isolate">ABOUT</text>
      </g>
      <g id="ad969ef0-ebd9-4bb8-8976-be4e850de3e1" data-name="portfolio-link" style="isolation: isolate">
        <text transform="translate(1382.12 86)" font-size="40" fill="#fff" font-family="Poppins-Bold, Poppins" font-weight="700" style="isolation: isolate">PORTFOLIO</text>
      </g>
      <g id="b4aea508-dbac-479b-950a-cc9c78320eb2" data-name="contact-link" style="isolation: isolate">
        <text transform="translate(1652.38 86)" font-size="40" fill="#fff" font-family="Poppins-Bold, Poppins" font-weight="700" style="isolation: isolate">CONTACT</text>
      </g>
      <g id="ffc00dc7-497f-4b00-be28-f995c0bfb128" data-name="logo">
        <g id="a26e626d-2121-4880-b8a5-49fdf5a81a29" data-name="Group 15">
          <path id="ea19a78a-a126-4f33-a597-97824dc8e334" data-name="Path 284" d="M126.33,27.81c4.32,0,8.2,1.5,11.92,3.55,1.39.76,3,1,4.39,1.82a4.59,4.59,0,0,0,.93.49c1.11.34,1.32,1.16,1.29,2.18a8.35,8.35,0,0,1-.73,3.45,3.17,3.17,0,0,0-.34,1.08c-.1,1.2.29,1.85,1.46,2a2.32,2.32,0,0,1,2.08,1.93,11.38,11.38,0,0,1,1.07,5.2c0,1.83.79,3.61,1.14,5.42a18.43,18.43,0,0,0,1.64,4.37,2.48,2.48,0,0,1-.09,2.25A9.72,9.72,0,0,0,150,65.31,3.22,3.22,0,0,0,151.48,68c.12.1.32.16.39.28.95,1.74,2.67,3,3.21,5A4.61,4.61,0,0,0,156.32,75a4.36,4.36,0,0,1,1.22,2.41A2.93,2.93,0,0,1,155,80.62c-.47.1-.95.17-1.43.27-1,.17-1.12.43-.88,1.39a10.3,10.3,0,0,0,.38,1.23,3.68,3.68,0,0,1-.27,3.41,3.41,3.41,0,0,0-.51,2.54,1.59,1.59,0,0,1-.64,1.51,4.92,4.92,0,0,0-1.38,3.26,15.21,15.21,0,0,1-.57,4.24,3.19,3.19,0,0,1-.86,1.33,7.67,7.67,0,0,1-3.57,2.11,3.47,3.47,0,0,1-.64.06,10.6,10.6,0,0,1-2.23-.37,5,5,0,0,0-1-.1,6,6,0,0,0-.73,0,44.18,44.18,0,0,0-8.42,1.88,5.25,5.25,0,0,0-2.44,1.92c-.83,1.06-1.53,2.21-2.35,3.27-.39.5-1,.87-1.4,1.33a4.6,4.6,0,0,0,.2,6.5,4.83,4.83,0,0,0,1,.72,3.51,3.51,0,0,1,1.08,1,6.63,6.63,0,0,0,1.15,1.33,2,2,0,0,1,.83,1.52,6.79,6.79,0,0,0,1,3c.72,1.39,1.6,2.68,2.25,4.1.5,1.08,1.19,2.05,1.65,3.15.34.83.18,1-.75,1a2.78,2.78,0,0,1-2.22-.88,55.18,55.18,0,0,0-21.73-13.86,67,67,0,0,0-8.31-2.44,68.66,68.66,0,0,0-8.56-1.35c-1.07-.1-2.14-.23-3.22-.28s-2.17-.11-3.26-.11l-2.41,0c-.39,0-.52,0-.6-.14s0-.4.16-.58a3.29,3.29,0,0,1,1.85-1.7c1.39-.44,1.51-1.79,1.9-2.9a5.08,5.08,0,0,1,.87-1.7,7.21,7.21,0,0,0,1.84-4.55,2.48,2.48,0,0,1,1.4-2.19q.44-.28.9-.54a2,2,0,0,0,1.31-2.23c-.23-2.85-.38-5.7-.66-8.52A9.71,9.71,0,0,0,92,83.84a1.1,1.1,0,0,0-.91-.43,3.31,3.31,0,0,0-.55,0A6.23,6.23,0,0,0,86.82,85a12.35,12.35,0,0,1-3.94,2,3.24,3.24,0,0,1-.93.16,1.37,1.37,0,0,1-1-.35,2.88,2.88,0,0,1-.23-2.54,62.43,62.43,0,0,1,5-7.16,5.25,5.25,0,0,0,.72-1.34c.68-1.41,1.93-2.42,2.62-3.78.87-1.72,1.78-3.44,1.28-5.54a6.14,6.14,0,0,1,.11-2.73,11.62,11.62,0,0,0-.08-4.32A9.23,9.23,0,0,1,91,55.26c.9-2.89,1.56-5.86,2.74-8.67A5.6,5.6,0,0,1,95,44.78c1.06-1.07,1.91-2.33,2.9-3.47a5.87,5.87,0,0,1,3.86-2.42,2.26,2.26,0,0,0,1.23-.57,32.38,32.38,0,0,1,5.08-3.44c1-.52,1.53-1.44,2.43-2a2,2,0,0,1,.79-.39c2.7-.38,4.95-1.89,7.34-3a7.63,7.63,0,0,1,2-.72,16.05,16.05,0,0,0,3.21-.73,4,4,0,0,1,1.46-.2Z" fill="#fff"/>
        </g>
        <g id="fb916c54-7c25-4fd9-b957-d889f70e723a" data-name="Ellipse 8">
          <ellipse cx="120.69" cy="80.04" rx="57.5" ry="61" fill="none" stroke="#fff" stroke-width="5"/>
        </g>
      </g>
    </g>
  </g>
</svg>
